<svg xmlns="http://www.w3.org/2000/svg" viewBox="0 0 620 180" role="img" aria-label="KetoHoy">
<rect width="620" height="180" rx="28" fill="#0C1F12"/>
<g transform="translate(10,0)">
  <g fill="none" stroke="#A6F13E" stroke-width="12" stroke-linecap="round" stroke-linejoin="round">
    <!-- left contour -->
    <path d="M70 30
             C53 37 42 52 36 69
             C28 91 29 116 41 137
             C51 155 68 164 84 164" />
    <!-- right contour -->
    <path d="M113 40
             C126 55 134 76 135 98
             C136 122 126 145 108 156
             C101 160 93 163 84 164" />
  </g>

  <!-- leaf -->
  <path d="M67 30
           C75 12 97 8 116 18
           C108 36 88 42 67 30Z"
        fill="#A6F13E"/>

  <!-- seed -->
  <ellipse cx="82" cy="111" rx="24" ry="27" fill="#A6F13E"/>
  <ellipse cx="82" cy="111" rx="6" ry="6.5" fill="#0C1F12"/>
</g>
<text x="185" y="112" fill="#FFFFFF" font-family="Inter, Arial, sans-serif"
      font-size="68" font-weight="750" letter-spacing="-2">Keto<tspan fill="#A6F13E">Hoy</tspan></text>
</svg>